<svg
    xmlns="http://www.w3.org/2000/svg"
    version="1.1"
    xmlns:xlink="http://www.w3.org/1999/xlink"
    style="font-size: 10pt; overflow: visible;"
    viewBox="7.939300537109375 -257.1179962158203 255.1517333984375 200.57325744628906"
>
    <defs>
        <symbol id="node_nmos_arrowmos">
            <g stroke="#000" stroke-miterlimit="10" stroke-width=".4">
                <path
                    fill="none"
                    stroke-width=".53134"
                    d="M37.57039.26569v19.18203h-18.51952m0 20.372h18.51952v19.18204"
                />
                <path
                    fill="none"
                    stroke-width="1.06267"
                    d="M19.05087 15.08254v29.10236m-4.4445-24.73718v20.372"
                />
                <path
                    stroke-width=".53134"
                    d="M26.06998 39.81972v2.64564l5.62199-2.64564-5.62199-2.64562Z"
                    fill="currentColor"
                />
                <path
                    fill="none"
                    stroke-width=".53134"
                    d="M14.60638 29.63372h-14.34069"
                />
            </g>
        </symbol>
        <path
            id="MJX-152-TEX-N-33"
            d="M127 463Q100 463 85 480T69 524Q69 579 117 622T233 665Q268 665 277 664Q351 652 390 611T430 522Q430 470 396 421T302 350L299 348Q299 347 308 345T337 336T375 315Q457 262 457 175Q457 96 395 37T238 -22Q158 -22 100 21T42 130Q42 158 60 175T105 193Q133 193 151 175T169 130Q169 119 166 110T159 94T148 82T136 74T126 70T118 67L114 66Q165 21 238 21Q293 21 321 74Q338 107 338 175V195Q338 290 274 322Q259 328 213 329L171 330L168 332Q166 335 166 348Q166 366 174 366Q202 366 232 371Q266 376 294 413T322 525V533Q322 590 287 612Q265 626 240 626Q208 626 181 615T143 592T132 580H135Q138 579 143 578T153 573T165 566T175 555T183 540T186 520Q186 498 172 481T127 463Z"
        />
        <path
            id="MJX-152-TEX-I-1D440"
            d="M289 629Q289 635 232 637Q208 637 201 638T194 648Q194 649 196 659Q197 662 198 666T199 671T201 676T203 679T207 681T212 683T220 683T232 684Q238 684 262 684T307 683Q386 683 398 683T414 678Q415 674 451 396L487 117L510 154Q534 190 574 254T662 394Q837 673 839 675Q840 676 842 678T846 681L852 683H948Q965 683 988 683T1017 684Q1051 684 1051 673Q1051 668 1048 656T1045 643Q1041 637 1008 637Q968 636 957 634T939 623Q936 618 867 340T797 59Q797 55 798 54T805 50T822 48T855 46H886Q892 37 892 35Q892 19 885 5Q880 0 869 0Q864 0 828 1T736 2Q675 2 644 2T609 1Q592 1 592 11Q592 13 594 25Q598 41 602 43T625 46Q652 46 685 49Q699 52 704 61Q706 65 742 207T813 490T848 631L654 322Q458 10 453 5Q451 4 449 3Q444 0 433 0Q418 0 415 7Q413 11 374 317L335 624L267 354Q200 88 200 79Q206 46 272 46H282Q288 41 289 37T286 19Q282 3 278 1Q274 0 267 0Q265 0 255 0T221 1T157 2Q127 2 95 1T58 0Q43 0 39 2T35 11Q35 13 38 25T43 40Q45 46 65 46Q135 46 154 86Q158 92 223 354T289 629Z"
        />
        <path
            id="MJX-149-TEX-N-32"
            d="M109 429Q82 429 66 447T50 491Q50 562 103 614T235 666Q326 666 387 610T449 465Q449 422 429 383T381 315T301 241Q265 210 201 149L142 93L218 92Q375 92 385 97Q392 99 409 186V189H449V186Q448 183 436 95T421 3V0H50V19V31Q50 38 56 46T86 81Q115 113 136 137Q145 147 170 174T204 211T233 244T261 278T284 308T305 340T320 369T333 401T340 431T343 464Q343 527 309 573T212 619Q179 619 154 602T119 569T109 550Q109 549 114 549Q132 549 151 535T170 489Q170 464 154 447T109 429Z"
        />
        <path
            id="MJX-149-TEX-I-1D440"
            d="M289 629Q289 635 232 637Q208 637 201 638T194 648Q194 649 196 659Q197 662 198 666T199 671T201 676T203 679T207 681T212 683T220 683T232 684Q238 684 262 684T307 683Q386 683 398 683T414 678Q415 674 451 396L487 117L510 154Q534 190 574 254T662 394Q837 673 839 675Q840 676 842 678T846 681L852 683H948Q965 683 988 683T1017 684Q1051 684 1051 673Q1051 668 1048 656T1045 643Q1041 637 1008 637Q968 636 957 634T939 623Q936 618 867 340T797 59Q797 55 798 54T805 50T822 48T855 46H886Q892 37 892 35Q892 19 885 5Q880 0 869 0Q864 0 828 1T736 2Q675 2 644 2T609 1Q592 1 592 11Q592 13 594 25Q598 41 602 43T625 46Q652 46 685 49Q699 52 704 61Q706 65 742 207T813 490T848 631L654 322Q458 10 453 5Q451 4 449 3Q444 0 433 0Q418 0 415 7Q413 11 374 317L335 624L267 354Q200 88 200 79Q206 46 272 46H282Q288 41 289 37T286 19Q282 3 278 1Q274 0 267 0Q265 0 255 0T221 1T157 2Q127 2 95 1T58 0Q43 0 39 2T35 11Q35 13 38 25T43 40Q45 46 65 46Q135 46 154 86Q158 92 223 354T289 629Z"
        />
        <path
            id="MJX-146-TEX-N-31"
            d="M213 578L200 573Q186 568 160 563T102 556H83V602H102Q149 604 189 617T245 641T273 663Q275 666 285 666Q294 666 302 660V361L303 61Q310 54 315 52T339 48T401 46H427V0H416Q395 3 257 3Q121 3 100 0H88V46H114Q136 46 152 46T177 47T193 50T201 52T207 57T213 61V578Z"
        />
        <path
            id="MJX-146-TEX-I-1D440"
            d="M289 629Q289 635 232 637Q208 637 201 638T194 648Q194 649 196 659Q197 662 198 666T199 671T201 676T203 679T207 681T212 683T220 683T232 684Q238 684 262 684T307 683Q386 683 398 683T414 678Q415 674 451 396L487 117L510 154Q534 190 574 254T662 394Q837 673 839 675Q840 676 842 678T846 681L852 683H948Q965 683 988 683T1017 684Q1051 684 1051 673Q1051 668 1048 656T1045 643Q1041 637 1008 637Q968 636 957 634T939 623Q936 618 867 340T797 59Q797 55 798 54T805 50T822 48T855 46H886Q892 37 892 35Q892 19 885 5Q880 0 869 0Q864 0 828 1T736 2Q675 2 644 2T609 1Q592 1 592 11Q592 13 594 25Q598 41 602 43T625 46Q652 46 685 49Q699 52 704 61Q706 65 742 207T813 490T848 631L654 322Q458 10 453 5Q451 4 449 3Q444 0 433 0Q418 0 415 7Q413 11 374 317L335 624L267 354Q200 88 200 79Q206 46 272 46H282Q288 41 289 37T286 19Q282 3 278 1Q274 0 267 0Q265 0 255 0T221 1T157 2Q127 2 95 1T58 0Q43 0 39 2T35 11Q35 13 38 25T43 40Q45 46 65 46Q135 46 154 86Q158 92 223 354T289 629Z"
        />
        <path
            id="MJX-143-TEX-N-30"
            d="M96 585Q152 666 249 666Q297 666 345 640T423 548Q460 465 460 320Q460 165 417 83Q397 41 362 16T301 -15T250 -22Q224 -22 198 -16T137 16T82 83Q39 165 39 320Q39 494 96 585ZM321 597Q291 629 250 629Q208 629 178 597Q153 571 145 525T137 333Q137 175 145 125T181 46Q209 16 250 16Q290 16 318 46Q347 76 354 130T362 333Q362 478 354 524T321 597Z"
        />
        <path
            id="MJX-143-TEX-I-1D440"
            d="M289 629Q289 635 232 637Q208 637 201 638T194 648Q194 649 196 659Q197 662 198 666T199 671T201 676T203 679T207 681T212 683T220 683T232 684Q238 684 262 684T307 683Q386 683 398 683T414 678Q415 674 451 396L487 117L510 154Q534 190 574 254T662 394Q837 673 839 675Q840 676 842 678T846 681L852 683H948Q965 683 988 683T1017 684Q1051 684 1051 673Q1051 668 1048 656T1045 643Q1041 637 1008 637Q968 636 957 634T939 623Q936 618 867 340T797 59Q797 55 798 54T805 50T822 48T855 46H886Q892 37 892 35Q892 19 885 5Q880 0 869 0Q864 0 828 1T736 2Q675 2 644 2T609 1Q592 1 592 11Q592 13 594 25Q598 41 602 43T625 46Q652 46 685 49Q699 52 704 61Q706 65 742 207T813 490T848 631L654 322Q458 10 453 5Q451 4 449 3Q444 0 433 0Q418 0 415 7Q413 11 374 317L335 624L267 354Q200 88 200 79Q206 46 272 46H282Q288 41 289 37T286 19Q282 3 278 1Q274 0 267 0Q265 0 255 0T221 1T157 2Q127 2 95 1T58 0Q43 0 39 2T35 11Q35 13 38 25T43 40Q45 46 65 46Q135 46 154 86Q158 92 223 354T289 629Z"
        />
        <symbol id="path_american-current-source">
            <g stroke="#000" stroke-miterlimit="10" stroke-width=".4">
                <g fill="currentFill" stroke-width="1.06267" class="fillable">
                    <path
                        d="M16.40544.53136c-8.7671 0-15.87408 7.10697-15.87408 15.87408s7.10697 15.87408 15.87408 15.87408 15.87408-7.10697 15.87408-15.87408-7.10697-15.87408-15.87408-15.87408Zm0 15.87408"
                    />
                    <path fill="none" d="M5.29364 16.40544h22.2236" />
                    <path
                        fill="#000"
                        d="M22.02754 16.40544v2.64564l5.62198-2.64564-5.62198-2.64564Z"
                    />
                </g>
            </g>
        </symbol>
        <symbol id="node_tground">
            <g
                fill="none"
                stroke="#000"
                stroke-miterlimit="10"
                stroke-width=".4"
            >
                <path stroke-width="1.59399" d="M.79702.79702h15.87407" />
            </g>
        </symbol>
        <symbol id="node_tlground">
            <g
                fill="none"
                stroke="#000"
                stroke-miterlimit="10"
                stroke-width=".4"
            >
                <path
                    stroke-width="1.06267"
                    d="M.53135.53136h15.87407m-13.22826 2.64562h10.58245m-8.59829 2.6456h6.61413"
                />
            </g>
        </symbol>
        <path
            id="MJX-140-TEX-N-35"
            d="M164 157Q164 133 148 117T109 101H102Q148 22 224 22Q294 22 326 82Q345 115 345 210Q345 313 318 349Q292 382 260 382H254Q176 382 136 314Q132 307 129 306T114 304Q97 304 95 310Q93 314 93 485V614Q93 664 98 664Q100 666 102 666Q103 666 123 658T178 642T253 634Q324 634 389 662Q397 666 402 666Q410 666 410 648V635Q328 538 205 538Q174 538 149 544L139 546V374Q158 388 169 396T205 412T256 420Q337 420 393 355T449 201Q449 109 385 44T229 -22Q148 -22 99 32T50 154Q50 178 61 192T84 210T107 214Q132 214 148 197T164 157Z"
        />
        <path
            id="MJX-140-TEX-I-1D440"
            d="M289 629Q289 635 232 637Q208 637 201 638T194 648Q194 649 196 659Q197 662 198 666T199 671T201 676T203 679T207 681T212 683T220 683T232 684Q238 684 262 684T307 683Q386 683 398 683T414 678Q415 674 451 396L487 117L510 154Q534 190 574 254T662 394Q837 673 839 675Q840 676 842 678T846 681L852 683H948Q965 683 988 683T1017 684Q1051 684 1051 673Q1051 668 1048 656T1045 643Q1041 637 1008 637Q968 636 957 634T939 623Q936 618 867 340T797 59Q797 55 798 54T805 50T822 48T855 46H886Q892 37 892 35Q892 19 885 5Q880 0 869 0Q864 0 828 1T736 2Q675 2 644 2T609 1Q592 1 592 11Q592 13 594 25Q598 41 602 43T625 46Q652 46 685 49Q699 52 704 61Q706 65 742 207T813 490T848 631L654 322Q458 10 453 5Q451 4 449 3Q444 0 433 0Q418 0 415 7Q413 11 374 317L335 624L267 354Q200 88 200 79Q206 46 272 46H282Q288 41 289 37T286 19Q282 3 278 1Q274 0 267 0Q265 0 255 0T221 1T157 2Q127 2 95 1T58 0Q43 0 39 2T35 11Q35 13 38 25T43 40Q45 46 65 46Q135 46 154 86Q158 92 223 354T289 629Z"
        />
        <path
            id="MJX-138-TEX-N-34"
            d="M462 0Q444 3 333 3Q217 3 199 0H190V46H221Q241 46 248 46T265 48T279 53T286 61Q287 63 287 115V165H28V211L179 442Q332 674 334 675Q336 677 355 677H373L379 671V211H471V165H379V114Q379 73 379 66T385 54Q393 47 442 46H471V0H462ZM293 211V545L74 212L183 211H293Z"
        />
        <path
            id="MJX-138-TEX-I-1D440"
            d="M289 629Q289 635 232 637Q208 637 201 638T194 648Q194 649 196 659Q197 662 198 666T199 671T201 676T203 679T207 681T212 683T220 683T232 684Q238 684 262 684T307 683Q386 683 398 683T414 678Q415 674 451 396L487 117L510 154Q534 190 574 254T662 394Q837 673 839 675Q840 676 842 678T846 681L852 683H948Q965 683 988 683T1017 684Q1051 684 1051 673Q1051 668 1048 656T1045 643Q1041 637 1008 637Q968 636 957 634T939 623Q936 618 867 340T797 59Q797 55 798 54T805 50T822 48T855 46H886Q892 37 892 35Q892 19 885 5Q880 0 869 0Q864 0 828 1T736 2Q675 2 644 2T609 1Q592 1 592 11Q592 13 594 25Q598 41 602 43T625 46Q652 46 685 49Q699 52 704 61Q706 65 742 207T813 490T848 631L654 322Q458 10 453 5Q451 4 449 3Q444 0 433 0Q418 0 415 7Q413 11 374 317L335 624L267 354Q200 88 200 79Q206 46 272 46H282Q288 41 289 37T286 19Q282 3 278 1Q274 0 267 0Q265 0 255 0T221 1T157 2Q127 2 95 1T58 0Q43 0 39 2T35 11Q35 13 38 25T43 40Q45 46 65 46Q135 46 154 86Q158 92 223 354T289 629Z"
        />
        <symbol id="node_jump-crossing">
            <g
                fill="none"
                stroke="#000"
                stroke-miterlimit="10"
                stroke-width=".53134"
            >
                <path
                    stroke-linejoin="bevel"
                    d="M.2657 5.55693h3.17477c0-1.1689.94756-2.11645 2.11645-2.11645s2.11645.94755 2.11645 2.11645h3.17478m-5.29123-5.29123v2.64561m0 1.05825v6.87859"
                />
            </g>
        </symbol>
        <symbol id="node_circ">
            <g stroke="#000" stroke-miterlimit="10" stroke-width=".53134">
                <path
                    d="M4.49803 2.38186c0-1.16874-.94744-2.11617-2.11617-2.11617s-2.11617.94743-2.11617 2.11617.94743 2.11617 2.11617 2.11617 2.11617-.94744 2.11617-2.11617Zm-2.11617 0"
                    fill="currentColor"
                />
            </g>
        </symbol>
        <path
            id="MJX-44-TEX-N-6F"
            d="M28 214Q28 309 93 378T250 448Q340 448 405 380T471 215Q471 120 407 55T250 -10Q153 -10 91 57T28 214ZM250 30Q372 30 372 193V225V250Q372 272 371 288T364 326T348 362T317 390T268 410Q263 411 252 411Q222 411 195 399Q152 377 139 338T126 246V226Q126 130 145 91Q177 30 250 30Z"
        />
        <path
            id="MJX-44-TEX-N-75"
            d="M383 58Q327 -10 256 -10H249Q124 -10 105 89Q104 96 103 226Q102 335 102 348T96 369Q86 385 36 385H25V408Q25 431 27 431L38 432Q48 433 67 434T105 436Q122 437 142 438T172 441T184 442H187V261Q188 77 190 64Q193 49 204 40Q224 26 264 26Q290 26 311 35T343 58T363 90T375 120T379 144Q379 145 379 161T380 201T380 248V315Q380 361 370 372T320 385H302V431Q304 431 378 436T457 442H464V264Q464 84 465 81Q468 61 479 55T524 46H542V0Q540 0 467 -5T390 -11H383V58Z"
        />
        <path
            id="MJX-44-TEX-N-74"
            d="M27 422Q80 426 109 478T141 600V615H181V431H316V385H181V241Q182 116 182 100T189 68Q203 29 238 29Q282 29 292 100Q293 108 293 146V181H333V146V134Q333 57 291 17Q264 -10 221 -10Q187 -10 162 2T124 33T105 68T98 100Q97 107 97 248V385H18V422H27Z"
        />
        <path
            id="MJX-44-TEX-I-1D43C"
            d="M43 1Q26 1 26 10Q26 12 29 24Q34 43 39 45Q42 46 54 46H60Q120 46 136 53Q137 53 138 54Q143 56 149 77T198 273Q210 318 216 344Q286 624 286 626Q284 630 284 631Q274 637 213 637H193Q184 643 189 662Q193 677 195 680T209 683H213Q285 681 359 681Q481 681 487 683H497Q504 676 504 672T501 655T494 639Q491 637 471 637Q440 637 407 634Q393 631 388 623Q381 609 337 432Q326 385 315 341Q245 65 245 59Q245 52 255 50T307 46H339Q345 38 345 37T342 19Q338 6 332 0H316Q279 2 179 2Q143 2 113 2T65 2T43 1Z"
        />
        <path
            id="MJX-128-TEX-I-1D44F"
            d="M73 647Q73 657 77 670T89 683Q90 683 161 688T234 694Q246 694 246 685T212 542Q204 508 195 472T180 418L176 399Q176 396 182 402Q231 442 283 442Q345 442 383 396T422 280Q422 169 343 79T173 -11Q123 -11 82 27T40 150V159Q40 180 48 217T97 414Q147 611 147 623T109 637Q104 637 101 637H96Q86 637 83 637T76 640T73 647ZM336 325V331Q336 405 275 405Q258 405 240 397T207 376T181 352T163 330L157 322L136 236Q114 150 114 114Q114 66 138 42Q154 26 178 26Q211 26 245 58Q270 81 285 114T318 219Q336 291 336 325Z"
        />
        <path
            id="MJX-128-TEX-I-1D449"
            d="M52 648Q52 670 65 683H76Q118 680 181 680Q299 680 320 683H330Q336 677 336 674T334 656Q329 641 325 637H304Q282 635 274 635Q245 630 242 620Q242 618 271 369T301 118L374 235Q447 352 520 471T595 594Q599 601 599 609Q599 633 555 637Q537 637 537 648Q537 649 539 661Q542 675 545 679T558 683Q560 683 570 683T604 682T668 681Q737 681 755 683H762Q769 676 769 672Q769 655 760 640Q757 637 743 637Q730 636 719 635T698 630T682 623T670 615T660 608T652 599T645 592L452 282Q272 -9 266 -16Q263 -18 259 -21L241 -22H234Q216 -22 216 -15Q213 -9 177 305Q139 623 138 626Q133 637 76 637H59Q52 642 52 648Z"
        />
    </defs>
    <g class="">
        <use
            xlink:href="#node_nmos_arrowmos"
            fill="none"
            stroke="#000"
            style="color: #000;"
            transform="matrix(1,0,0,1,197.89361,-180.81472000000002)"
            class=""
        />
        <g
            class="pointerNone"
            transform="matrix(1,0,0,1,242.17415893675474,-137.43797682598446)"
            fill="#000"
        >
            <g
                transform="matrix(0.013459260841703723,0,0,0.013461388208702555,0,0)"
            >
                <g
                    stroke="currentColor"
                    fill="inherit"
                    stroke-width="0"
                    transform="scale(1,-1)"
                >
                    <g>
                        <g transform="translate(1003,-150) scale(0.707)">
                            <use xlink:href="#MJX-152-TEX-N-33" />
                        </g>
                        <use xlink:href="#MJX-152-TEX-I-1D440" />
                    </g>
                </g>
            </g>
        </g>
    </g>
    <g class="">
        <use
            xlink:href="#node_nmos_arrowmos"
            fill="none"
            stroke="#000"
            style="color: #000;"
            transform="matrix(1,0,0,1,197.89361,-122.60972)"
            class=""
        />
        <g
            class="pointerNone"
            transform="matrix(1,0,0,1,242.17415893675474,-79.2315320093951)"
            fill="#000"
        >
            <g
                transform="matrix(0.013459260841703723,0,0,0.01346350080901792,0,0)"
            >
                <g
                    stroke="currentColor"
                    fill="inherit"
                    stroke-width="0"
                    transform="scale(1,-1)"
                >
                    <g>
                        <g transform="translate(1003,-150) scale(0.707)">
                            <use xlink:href="#MJX-149-TEX-N-32" />
                        </g>
                        <use xlink:href="#MJX-149-TEX-I-1D440" />
                    </g>
                </g>
            </g>
        </g>
    </g>
    <g class="">
        <use
            xlink:href="#node_nmos_arrowmos"
            fill="none"
            stroke="#000"
            style="color: #000;"
            transform="matrix(1,0,0,1,123.05960999999999,-122.60972)"
            class=""
        />
        <g
            class="pointerNone"
            transform="matrix(1,0,0,1,167.34015893675473,-79.2315320093951)"
            fill="#000"
        >
            <g
                transform="matrix(0.013459260841703723,0,0,0.01346350080901792,0,0)"
            >
                <g
                    stroke="currentColor"
                    fill="inherit"
                    stroke-width="0"
                    transform="scale(1,-1)"
                >
                    <g>
                        <g transform="translate(1003,-150) scale(0.707)">
                            <use xlink:href="#MJX-146-TEX-N-31" />
                        </g>
                        <use xlink:href="#MJX-146-TEX-I-1D440" />
                    </g>
                </g>
            </g>
        </g>
    </g>
    <g class="">
        <use
            xlink:href="#node_nmos_arrowmos"
            fill="none"
            stroke="#000"
            style="color: #000;"
            transform="matrix(1,0,0,1,123.05960999999999,-180.81472000000002)"
            class=""
        />
        <g
            class="pointerNone"
            transform="matrix(1,0,0,1,167.34015893675473,-137.43797682598446)"
            fill="#000"
        >
            <g
                transform="matrix(0.013459260841703723,0,0,0.013461388208702555,0,0)"
            >
                <g
                    stroke="currentColor"
                    fill="inherit"
                    stroke-width="0"
                    transform="scale(1,-1)"
                >
                    <g>
                        <g transform="translate(1003,-150) scale(0.707)">
                            <use xlink:href="#MJX-143-TEX-N-30" />
                        </g>
                        <use xlink:href="#MJX-143-TEX-I-1D440" />
                    </g>
                </g>
            </g>
        </g>
    </g>
    <g class="">
        <polyline
            points="198.425,-92.976 103.937,-92.976 103.937,-179.528 160.63,-179.528 160.63,-180.283"
            fill="none"
            stroke-dasharray="0.4pt 0pt"
            stroke-opacity="1"
            stroke-width="0.5333333333333333"
            stroke="#000"
        />
    </g>
    <g class="">
        <polyline
            points="123.591,-151.181 198.425,-151.181"
            fill="none"
            stroke-dasharray="0.4pt 0pt"
            stroke-opacity="1"
            stroke-width="0.5333333333333333"
            stroke="#000"
        />
    </g>
    <g style="" class="">
        <use
            xlink:href="#path_american-current-source"
            fill="none"
            stroke="#000"
            style="color: #000;"
            transform="matrix(3.061616997868383e-17,0.5,-0.5,3.061616997868383e-17,168.83272,-239.69871999999998)"
        />
        <line
            x1="160.63"
            y1="-255.118"
            x2="160.63"
            y2="-239.43303999999998"
            fill="none"
            stroke-width="0.5"
            stroke="#000"
        />
        <line
            x1="160.63"
            y1="-207.874"
            x2="160.63"
            y2="-223.55895999999998"
            fill="none"
            stroke-width="0.5"
            stroke="#000"
        />
    </g>
    <g class="">
        <use
            xlink:href="#node_tground"
            fill="none"
            stroke="#000"
            style="color: #000;"
            transform="matrix(1,0,0,1,151.934,-255.87698)"
        />
    </g>
    <g class="">
        <use
            xlink:href="#node_tlground"
            fill="none"
            stroke="#000"
            style="color: #000;"
            transform="matrix(1,0,0,1,152.19966,-64.36732)"
        />
    </g>
    <g class="">
        <use
            xlink:href="#node_tlground"
            fill="none"
            stroke="#000"
            style="color: #000;"
            transform="matrix(1,0,0,1,227.03366,-64.36732)"
        />
    </g>
    <g class="">
        <use
            xlink:href="#node_nmos_arrowmos"
            fill="none"
            stroke="#000"
            style="color: #000;"
            transform="matrix(1,0,0,1,9.673609999999996,-209.91672)"
            class=""
        />
        <g
            class="pointerNone"
            transform="matrix(1,0,0,1,53.95415893675474,-176.793498046875)"
            fill="#000"
        >
            <g
                transform="matrix(0.013459260841703723,0,0,0.013461388208702555,0,0)"
            >
                <g
                    stroke="currentColor"
                    fill="inherit"
                    stroke-width="0"
                    transform="scale(1,-1)"
                >
                    <g>
                        <g transform="translate(1003,-150) scale(0.707)">
                            <use xlink:href="#MJX-140-TEX-N-35" />
                        </g>
                        <use xlink:href="#MJX-140-TEX-I-1D440" />
                    </g>
                </g>
            </g>
        </g>
    </g>
    <g class="">
        <use
            xlink:href="#node_nmos_arrowmos"
            fill="none"
            stroke="#000"
            style="color: #000;"
            transform="matrix(1,0,0,1,9.673609999999996,-151.71272)"
            class=""
        />
        <g
            class="pointerNone"
            transform="matrix(1,0,0,1,53.95415893675474,-118.4842448272705)"
            fill="#000"
        >
            <g
                transform="matrix(0.013459260841703723,0,0,0.01346350080901792,0,0)"
            >
                <g
                    stroke="currentColor"
                    fill="inherit"
                    stroke-width="0"
                    transform="scale(1,-1)"
                >
                    <g>
                        <g transform="translate(1003,-150) scale(0.707)">
                            <use xlink:href="#MJX-138-TEX-N-34" />
                        </g>
                        <use xlink:href="#MJX-138-TEX-I-1D440" />
                    </g>
                </g>
            </g>
        </g>
    </g>
    <g class="">
        <use
            xlink:href="#node_jump-crossing"
            fill="none"
            stroke="#000"
            style="color: #000;"
            transform="matrix(1,0,0,1,98.38007999999999,-156.73793)"
        />
    </g>
    <g class="">
        <polyline
            points="109.228,-151.181 123.591,-151.181"
            fill="none"
            stroke-dasharray="0.4pt 0pt"
            stroke-opacity="1"
            stroke-width="0.5333333333333333"
            stroke="#000"
        />
    </g>
    <g class="">
        <polyline
            points="47.244,-151.181 98.646,-151.181"
            fill="none"
            stroke-dasharray="0.4pt 0pt"
            stroke-opacity="1"
            stroke-width="0.5333333333333333"
            stroke="#000"
        />
    </g>
    <g style="" class="">
        <use
            xlink:href="#path_american-current-source"
            fill="none"
            stroke="#000"
            style="color: #000;"
            transform="matrix(3.061616997868383e-17,0.5,-0.5,3.061616997868383e-17,55.44672,-240.45472)"
        />
        <line
            x1="47.244"
            y1="-255.118"
            x2="47.244"
            y2="-240.18904"
            fill="none"
            stroke-width="0.5"
            stroke="#000"
        />
        <line
            x1="47.244"
            y1="-209.386"
            x2="47.244"
            y2="-224.31496"
            fill="none"
            stroke-width="0.5"
            stroke="#000"
        />
    </g>
    <g class="">
        <use
            xlink:href="#node_tground"
            fill="none"
            stroke="#000"
            style="color: #000;"
            transform="matrix(1,0,0,1,38.548,-255.87698)"
        />
    </g>
    <g class="">
        <use
            xlink:href="#node_tlground"
            fill="none"
            stroke="#000"
            style="color: #000;"
            transform="matrix(1,0,0,1,38.81366,-66.63532)"
        />
    </g>
    <g class="">
        <polyline
            points="10.205,-122.079 10.205,-209.385 47.244,-209.385"
            fill="none"
            stroke-dasharray="0.4pt 0pt"
            stroke-opacity="1"
            stroke-width="0.5333333333333333"
            stroke="#000"
        />
    </g>
    <g class="">
        <use
            xlink:href="#node_circ"
            fill="none"
            stroke="#000"
            style="color: #000;"
            transform="matrix(1,0,0,1,44.86214,-153.56286)"
        />
    </g>
    <g class="">
        <polyline
            points="160.63,-207.874 160.63,-180.283"
            fill="none"
            stroke-dasharray="0.4pt 0pt"
            stroke-opacity="1"
            stroke-width="0.5333333333333333"
            stroke="#000"
        />
    </g>
    <g class="">
        <polyline
            points="47.244,-92.977 47.244,-66.142"
            fill="none"
            stroke-dasharray="0.4pt 0pt"
            stroke-opacity="1"
            stroke-width="0.5333333333333333"
            stroke="#000"
        />
    </g>
    <g class="">
        <polyline
            points="235.464,-182.58336000000003 235.464,-205.77427821522306 235.17060367454064,-205.77427821522306"
            fill="none"
            stroke-dasharray="0.4pt 0pt"
            stroke-opacity="1"
            stroke-width="0.5333333333333333"
            stroke="#000"
        />
        <g
            stroke-opacity="1"
            stroke="#000"
            fill-opacity="1"
            fill="#000"
            transform="matrix(2.816687638038912e-16,4.6,-4.6,2.816687638038912e-16,237.764,-184.88336)"
            stroke-width="0"
        >
            <path stroke="none" d="M0 0 1 .5 0 1 .3.5" stroke-linecap="round" />
        </g>
    </g>
    <g class="">
        <g transform="matrix(1,0,0,1,0,0)" style="pointer-events: none;">
            <g
                fill="#000"
                transform="matrix(1,0,0,1,243.464,-189.37532808398944)"
            >
                <g transform="matrix(1,0,0,1,0,8.272992645025147)">
                    <g
                        transform="matrix(0.012114599922471134,0,0,0.012113006957187698,0,0)"
                    >
                        <g
                            stroke="currentColor"
                            fill="inherit"
                            stroke-width="0"
                            transform="scale(1,-1)"
                        >
                            <g>
                                <g
                                    transform="translate(473,-150) scale(0.707)"
                                    data-mjx-texclass="ORD"
                                >
                                    <g>
                                        <use xlink:href="#MJX-44-TEX-N-6F" />
                                        <use
                                            xlink:href="#MJX-44-TEX-N-75"
                                            transform="translate(500,0)"
                                        />
                                        <use
                                            xlink:href="#MJX-44-TEX-N-74"
                                            transform="translate(1056,0)"
                                        />
                                    </g>
                                </g>
                                <use xlink:href="#MJX-44-TEX-I-1D43C" />
                            </g>
                        </g>
                    </g>
                </g>
            </g>
            <g
                fill="#000"
                transform="matrix(1,0,0,1,243.464,-189.37532808398944)"
            />
        </g>
    </g>
    <g class="">
        <g transform="matrix(1,0,0,1,0,0)" style="pointer-events: none;">
            <g
                fill="#000"
                transform="matrix(1,0,0,1,52.24112598425195,-164.47257742782148)"
            >
                <g transform="matrix(1,0,0,1,0,8.272992645025147)">
                    <g
                        transform="matrix(0.01211475333505186,0,0,0.012113006957187698,0,0)"
                    >
                        <g
                            stroke="currentColor"
                            fill="inherit"
                            stroke-width="0"
                            transform="scale(1,-1)"
                        >
                            <g>
                                <g transform="translate(616,-150) scale(0.707)">
                                    <use xlink:href="#MJX-128-TEX-I-1D44F" />
                                </g>
                                <use xlink:href="#MJX-128-TEX-I-1D449" />
                            </g>
                        </g>
                    </g>
                </g>
            </g>
            <g
                fill="#000"
                transform="matrix(1,0,0,1,52.24112598425195,-164.47257742782148)"
            />
        </g>
    </g>
</svg>
