<svg
    xmlns="http://www.w3.org/2000/svg"
    version="1.1"
    xmlns:xlink="http://www.w3.org/1999/xlink"
    style="font-size: 10pt; overflow: visible;"
    viewBox="84.2072525024414 -263.7407531738281 343.065185546875 269.5412902832031"
>
    <defs>
        <symbol id="path_capacitor">
            <g stroke="#000" stroke-miterlimit="10" stroke-width=".4">
                <g fill="currentFill" class="fillable">
                    <path
                        d="M.53137.53136h10.58246v31.74816h-10.58246Z"
                        stroke="none"
                    />
                    <path
                        fill="none"
                        stroke-width="1.06267"
                        d="M.53137.53136v31.74816m10.58243-31.74816v31.74816"
                    />
                </g>
            </g>
        </symbol>
        <symbol xmlns:ns0="http://www.w3.org/1999/xlink" id="node_fd-op-amp">
            <defs>
                <path
                    id="node_fd-op-amp_a"
                    d="M7.4919-2.19178c.14946 0 .44833 0 .44833-.29888-.00001-.30884-.28892-.30884-.44832-.30884h-6.08718c-.14943 0-.44832 0-.44832.29888 0 .30884.28892.30884.44832.30884z"
                />
                <path
                    id="node_fd-op-amp_b"
                    d="M4.75218-2.19178h3.07846c.1295 0 .42838 0 .42838-.29888.00001-.30884-.28892-.30884-.42839-.30884h-3.07844v-3.08842c-.00001-.11955-.00001-.41843-.29889-.41843-.30884 0-.30884.28892-.30884.41843v3.08842h-3.07846c-.13947 0-.4284 0-.4284.30884 0 .29888.2989.29888.4284.29888h3.07846v3.08842c0 .11955 0 .41843.29888.41843.30884 0 .30884-.28892.30884-.41843z"
                />
            </defs>
            <g stroke="#000" stroke-miterlimit="10" stroke-width=".4">
                <g fill="currentFill" class="fillable">
                    <path
                        fill="none"
                        stroke-width=".53134"
                        d="m76.7249 37.5704-31.4831-18.51952h31.4831-31.4831l-31.48313-18.51951v74.07805l31.48313-18.5195h31.4831-31.4831z"
                    />
                    <path
                        stroke-width="1.06267"
                        d="m76.7249 37.5704-62.96623-37.03903v74.07805Z"
                    />
                    <g stroke-linecap="square">
                        <path
                            fill="none"
                            stroke-width=".53134"
                            d="M.26569 19.05088h13.49298m-13.49298 37.03904h13.49298"
                        />
                        <g fill="#000" stroke="none">
                            <use
                                xlink:href="#node_fd-op-amp_a"
                                x="-34.75112"
                                y="-43.82222"
                                transform="translate(64.5169 80.80137)scale(1.33333)"
                            />
                            <use
                                xlink:href="#node_fd-op-amp_b"
                                x="-34.75112"
                                y="-43.82222"
                                transform="translate(64.5169 117.84041)scale(1.33333)"
                            />
                            <use
                                xlink:href="#node_fd-op-amp_a"
                                x="-34.75112"
                                y="-43.82222"
                                transform="translate(83.68034 108.64224)scale(1.33333)"
                            />
                            <use
                                xlink:href="#node_fd-op-amp_b"
                                x="-34.75112"
                                y="-43.82222"
                                transform="translate(83.68034 89.99954)scale(1.33333)"
                            />
                        </g>
                    </g>
                </g>
            </g>
        </symbol>
        <symbol id="path_switch">
            <g stroke="#000" stroke-miterlimit="10" stroke-width=".4">
                <g stroke-width=".79999">
                    <path
                        fill="none"
                        stroke-width="1.06267"
                        d="m.53135 11.64328 14.81596-9.25996"
                    />
                    <g stroke-linejoin="bevel">
                        <path
                            fill="none"
                            stroke-width="1.06267"
                            d="M.53135.53136c3.96945 0 7.63852 2.11834 9.62322 5.55597.94014 1.6284 1.44028 3.44756 1.48523 5.2844"
                        />
                        <path
                            d="M10.97317 15.44383c.41059-1.7124 1.21865-4.79213 2.85018-6.8038-1.96353 1.65347-3.34395 1.60109-5.1765-.19646 1.47436 2.12956 2.04669 5.26166 2.32631 7.00026"
                            stroke="none"
                            fill="currentColor"
                        />
                    </g>
                </g>
            </g>
        </symbol>
        <path
            id="MJX-31-TEX-N-31"
            d="M213 578L200 573Q186 568 160 563T102 556H83V602H102Q149 604 189 617T245 641T273 663Q275 666 285 666Q294 666 302 660V361L303 61Q310 54 315 52T339 48T401 46H427V0H416Q395 3 257 3Q121 3 100 0H88V46H114Q136 46 152 46T177 47T193 50T201 52T207 57T213 61V578Z"
        />
        <path
            id="MJX-31-TEX-I-1D719"
            d="M409 688Q413 694 421 694H429H442Q448 688 448 686Q448 679 418 563Q411 535 404 504T392 458L388 442Q388 441 397 441T429 435T477 418Q521 397 550 357T579 260T548 151T471 65T374 11T279 -10H275L251 -105Q245 -128 238 -160Q230 -192 227 -198T215 -205H209Q189 -205 189 -198Q189 -193 211 -103L234 -11Q234 -10 226 -10Q221 -10 206 -8T161 6T107 36T62 89T43 171Q43 231 76 284T157 370T254 422T342 441Q347 441 348 445L378 567Q409 686 409 688ZM122 150Q122 116 134 91T167 53T203 35T237 27H244L337 404Q333 404 326 403T297 395T255 379T211 350T170 304Q152 276 137 237Q122 191 122 150ZM500 282Q500 320 484 347T444 385T405 400T381 404H378L332 217L284 29Q284 27 285 27Q293 27 317 33T357 47Q400 66 431 100T475 170T494 234T500 282Z"
        />
        <symbol id="node_tlground">
            <g
                fill="none"
                stroke="#000"
                stroke-miterlimit="10"
                stroke-width=".4"
            >
                <path
                    stroke-width="1.06267"
                    d="M.53135.53136h15.87407m-13.22826 2.64562h10.58245m-8.59829 2.6456h6.61413"
                />
            </g>
        </symbol>
        <path
            id="MJX-32-TEX-N-31"
            d="M213 578L200 573Q186 568 160 563T102 556H83V602H102Q149 604 189 617T245 641T273 663Q275 666 285 666Q294 666 302 660V361L303 61Q310 54 315 52T339 48T401 46H427V0H416Q395 3 257 3Q121 3 100 0H88V46H114Q136 46 152 46T177 47T193 50T201 52T207 57T213 61V578Z"
        />
        <path
            id="MJX-32-TEX-I-1D719"
            d="M409 688Q413 694 421 694H429H442Q448 688 448 686Q448 679 418 563Q411 535 404 504T392 458L388 442Q388 441 397 441T429 435T477 418Q521 397 550 357T579 260T548 151T471 65T374 11T279 -10H275L251 -105Q245 -128 238 -160Q230 -192 227 -198T215 -205H209Q189 -205 189 -198Q189 -193 211 -103L234 -11Q234 -10 226 -10Q221 -10 206 -8T161 6T107 36T62 89T43 171Q43 231 76 284T157 370T254 422T342 441Q347 441 348 445L378 567Q409 686 409 688ZM122 150Q122 116 134 91T167 53T203 35T237 27H244L337 404Q333 404 326 403T297 395T255 379T211 350T170 304Q152 276 137 237Q122 191 122 150ZM500 282Q500 320 484 347T444 385T405 400T381 404H378L332 217L284 29Q284 27 285 27Q293 27 317 33T357 47Q400 66 431 100T475 170T494 234T500 282Z"
        />
        <path
            id="MJX-33-TEX-N-31"
            d="M213 578L200 573Q186 568 160 563T102 556H83V602H102Q149 604 189 617T245 641T273 663Q275 666 285 666Q294 666 302 660V361L303 61Q310 54 315 52T339 48T401 46H427V0H416Q395 3 257 3Q121 3 100 0H88V46H114Q136 46 152 46T177 47T193 50T201 52T207 57T213 61V578Z"
        />
        <path
            id="MJX-33-TEX-I-1D719"
            d="M409 688Q413 694 421 694H429H442Q448 688 448 686Q448 679 418 563Q411 535 404 504T392 458L388 442Q388 441 397 441T429 435T477 418Q521 397 550 357T579 260T548 151T471 65T374 11T279 -10H275L251 -105Q245 -128 238 -160Q230 -192 227 -198T215 -205H209Q189 -205 189 -198Q189 -193 211 -103L234 -11Q234 -10 226 -10Q221 -10 206 -8T161 6T107 36T62 89T43 171Q43 231 76 284T157 370T254 422T342 441Q347 441 348 445L378 567Q409 686 409 688ZM122 150Q122 116 134 91T167 53T203 35T237 27H244L337 404Q333 404 326 403T297 395T255 379T211 350T170 304Q152 276 137 237Q122 191 122 150ZM500 282Q500 320 484 347T444 385T405 400T381 404H378L332 217L284 29Q284 27 285 27Q293 27 317 33T357 47Q400 66 431 100T475 170T494 234T500 282Z"
        />
        <path
            id="MJX-34-TEX-N-31"
            d="M213 578L200 573Q186 568 160 563T102 556H83V602H102Q149 604 189 617T245 641T273 663Q275 666 285 666Q294 666 302 660V361L303 61Q310 54 315 52T339 48T401 46H427V0H416Q395 3 257 3Q121 3 100 0H88V46H114Q136 46 152 46T177 47T193 50T201 52T207 57T213 61V578Z"
        />
        <path
            id="MJX-34-TEX-I-1D719"
            d="M409 688Q413 694 421 694H429H442Q448 688 448 686Q448 679 418 563Q411 535 404 504T392 458L388 442Q388 441 397 441T429 435T477 418Q521 397 550 357T579 260T548 151T471 65T374 11T279 -10H275L251 -105Q245 -128 238 -160Q230 -192 227 -198T215 -205H209Q189 -205 189 -198Q189 -193 211 -103L234 -11Q234 -10 226 -10Q221 -10 206 -8T161 6T107 36T62 89T43 171Q43 231 76 284T157 370T254 422T342 441Q347 441 348 445L378 567Q409 686 409 688ZM122 150Q122 116 134 91T167 53T203 35T237 27H244L337 404Q333 404 326 403T297 395T255 379T211 350T170 304Q152 276 137 237Q122 191 122 150ZM500 282Q500 320 484 347T444 385T405 400T381 404H378L332 217L284 29Q284 27 285 27Q293 27 317 33T357 47Q400 66 431 100T475 170T494 234T500 282Z"
        />
        <path
            id="MJX-35-TEX-N-31"
            d="M213 578L200 573Q186 568 160 563T102 556H83V602H102Q149 604 189 617T245 641T273 663Q275 666 285 666Q294 666 302 660V361L303 61Q310 54 315 52T339 48T401 46H427V0H416Q395 3 257 3Q121 3 100 0H88V46H114Q136 46 152 46T177 47T193 50T201 52T207 57T213 61V578Z"
        />
        <path
            id="MJX-35-TEX-I-1D719"
            d="M409 688Q413 694 421 694H429H442Q448 688 448 686Q448 679 418 563Q411 535 404 504T392 458L388 442Q388 441 397 441T429 435T477 418Q521 397 550 357T579 260T548 151T471 65T374 11T279 -10H275L251 -105Q245 -128 238 -160Q230 -192 227 -198T215 -205H209Q189 -205 189 -198Q189 -193 211 -103L234 -11Q234 -10 226 -10Q221 -10 206 -8T161 6T107 36T62 89T43 171Q43 231 76 284T157 370T254 422T342 441Q347 441 348 445L378 567Q409 686 409 688ZM122 150Q122 116 134 91T167 53T203 35T237 27H244L337 404Q333 404 326 403T297 395T255 379T211 350T170 304Q152 276 137 237Q122 191 122 150ZM500 282Q500 320 484 347T444 385T405 400T381 404H378L332 217L284 29Q284 27 285 27Q293 27 317 33T357 47Q400 66 431 100T475 170T494 234T500 282Z"
        />
        <path
            id="MJX-36-TEX-N-31"
            d="M213 578L200 573Q186 568 160 563T102 556H83V602H102Q149 604 189 617T245 641T273 663Q275 666 285 666Q294 666 302 660V361L303 61Q310 54 315 52T339 48T401 46H427V0H416Q395 3 257 3Q121 3 100 0H88V46H114Q136 46 152 46T177 47T193 50T201 52T207 57T213 61V578Z"
        />
        <path
            id="MJX-36-TEX-I-1D719"
            d="M409 688Q413 694 421 694H429H442Q448 688 448 686Q448 679 418 563Q411 535 404 504T392 458L388 442Q388 441 397 441T429 435T477 418Q521 397 550 357T579 260T548 151T471 65T374 11T279 -10H275L251 -105Q245 -128 238 -160Q230 -192 227 -198T215 -205H209Q189 -205 189 -198Q189 -193 211 -103L234 -11Q234 -10 226 -10Q221 -10 206 -8T161 6T107 36T62 89T43 171Q43 231 76 284T157 370T254 422T342 441Q347 441 348 445L378 567Q409 686 409 688ZM122 150Q122 116 134 91T167 53T203 35T237 27H244L337 404Q333 404 326 403T297 395T255 379T211 350T170 304Q152 276 137 237Q122 191 122 150ZM500 282Q500 320 484 347T444 385T405 400T381 404H378L332 217L284 29Q284 27 285 27Q293 27 317 33T357 47Q400 66 431 100T475 170T494 234T500 282Z"
        />
        <path
            id="MJX-37-TEX-N-32"
            d="M109 429Q82 429 66 447T50 491Q50 562 103 614T235 666Q326 666 387 610T449 465Q449 422 429 383T381 315T301 241Q265 210 201 149L142 93L218 92Q375 92 385 97Q392 99 409 186V189H449V186Q448 183 436 95T421 3V0H50V19V31Q50 38 56 46T86 81Q115 113 136 137Q145 147 170 174T204 211T233 244T261 278T284 308T305 340T320 369T333 401T340 431T343 464Q343 527 309 573T212 619Q179 619 154 602T119 569T109 550Q109 549 114 549Q132 549 151 535T170 489Q170 464 154 447T109 429Z"
        />
        <path
            id="MJX-37-TEX-I-1D719"
            d="M409 688Q413 694 421 694H429H442Q448 688 448 686Q448 679 418 563Q411 535 404 504T392 458L388 442Q388 441 397 441T429 435T477 418Q521 397 550 357T579 260T548 151T471 65T374 11T279 -10H275L251 -105Q245 -128 238 -160Q230 -192 227 -198T215 -205H209Q189 -205 189 -198Q189 -193 211 -103L234 -11Q234 -10 226 -10Q221 -10 206 -8T161 6T107 36T62 89T43 171Q43 231 76 284T157 370T254 422T342 441Q347 441 348 445L378 567Q409 686 409 688ZM122 150Q122 116 134 91T167 53T203 35T237 27H244L337 404Q333 404 326 403T297 395T255 379T211 350T170 304Q152 276 137 237Q122 191 122 150ZM500 282Q500 320 484 347T444 385T405 400T381 404H378L332 217L284 29Q284 27 285 27Q293 27 317 33T357 47Q400 66 431 100T475 170T494 234T500 282Z"
        />
        <path
            id="MJX-38-TEX-N-32"
            d="M109 429Q82 429 66 447T50 491Q50 562 103 614T235 666Q326 666 387 610T449 465Q449 422 429 383T381 315T301 241Q265 210 201 149L142 93L218 92Q375 92 385 97Q392 99 409 186V189H449V186Q448 183 436 95T421 3V0H50V19V31Q50 38 56 46T86 81Q115 113 136 137Q145 147 170 174T204 211T233 244T261 278T284 308T305 340T320 369T333 401T340 431T343 464Q343 527 309 573T212 619Q179 619 154 602T119 569T109 550Q109 549 114 549Q132 549 151 535T170 489Q170 464 154 447T109 429Z"
        />
        <path
            id="MJX-38-TEX-I-1D719"
            d="M409 688Q413 694 421 694H429H442Q448 688 448 686Q448 679 418 563Q411 535 404 504T392 458L388 442Q388 441 397 441T429 435T477 418Q521 397 550 357T579 260T548 151T471 65T374 11T279 -10H275L251 -105Q245 -128 238 -160Q230 -192 227 -198T215 -205H209Q189 -205 189 -198Q189 -193 211 -103L234 -11Q234 -10 226 -10Q221 -10 206 -8T161 6T107 36T62 89T43 171Q43 231 76 284T157 370T254 422T342 441Q347 441 348 445L378 567Q409 686 409 688ZM122 150Q122 116 134 91T167 53T203 35T237 27H244L337 404Q333 404 326 403T297 395T255 379T211 350T170 304Q152 276 137 237Q122 191 122 150ZM500 282Q500 320 484 347T444 385T405 400T381 404H378L332 217L284 29Q284 27 285 27Q293 27 317 33T357 47Q400 66 431 100T475 170T494 234T500 282Z"
        />
        <path
            id="MJX-39-TEX-N-32"
            d="M109 429Q82 429 66 447T50 491Q50 562 103 614T235 666Q326 666 387 610T449 465Q449 422 429 383T381 315T301 241Q265 210 201 149L142 93L218 92Q375 92 385 97Q392 99 409 186V189H449V186Q448 183 436 95T421 3V0H50V19V31Q50 38 56 46T86 81Q115 113 136 137Q145 147 170 174T204 211T233 244T261 278T284 308T305 340T320 369T333 401T340 431T343 464Q343 527 309 573T212 619Q179 619 154 602T119 569T109 550Q109 549 114 549Q132 549 151 535T170 489Q170 464 154 447T109 429Z"
        />
        <path
            id="MJX-39-TEX-I-1D719"
            d="M409 688Q413 694 421 694H429H442Q448 688 448 686Q448 679 418 563Q411 535 404 504T392 458L388 442Q388 441 397 441T429 435T477 418Q521 397 550 357T579 260T548 151T471 65T374 11T279 -10H275L251 -105Q245 -128 238 -160Q230 -192 227 -198T215 -205H209Q189 -205 189 -198Q189 -193 211 -103L234 -11Q234 -10 226 -10Q221 -10 206 -8T161 6T107 36T62 89T43 171Q43 231 76 284T157 370T254 422T342 441Q347 441 348 445L378 567Q409 686 409 688ZM122 150Q122 116 134 91T167 53T203 35T237 27H244L337 404Q333 404 326 403T297 395T255 379T211 350T170 304Q152 276 137 237Q122 191 122 150ZM500 282Q500 320 484 347T444 385T405 400T381 404H378L332 217L284 29Q284 27 285 27Q293 27 317 33T357 47Q400 66 431 100T475 170T494 234T500 282Z"
        />
        <path
            id="MJX-40-TEX-N-32"
            d="M109 429Q82 429 66 447T50 491Q50 562 103 614T235 666Q326 666 387 610T449 465Q449 422 429 383T381 315T301 241Q265 210 201 149L142 93L218 92Q375 92 385 97Q392 99 409 186V189H449V186Q448 183 436 95T421 3V0H50V19V31Q50 38 56 46T86 81Q115 113 136 137Q145 147 170 174T204 211T233 244T261 278T284 308T305 340T320 369T333 401T340 431T343 464Q343 527 309 573T212 619Q179 619 154 602T119 569T109 550Q109 549 114 549Q132 549 151 535T170 489Q170 464 154 447T109 429Z"
        />
        <path
            id="MJX-40-TEX-I-1D719"
            d="M409 688Q413 694 421 694H429H442Q448 688 448 686Q448 679 418 563Q411 535 404 504T392 458L388 442Q388 441 397 441T429 435T477 418Q521 397 550 357T579 260T548 151T471 65T374 11T279 -10H275L251 -105Q245 -128 238 -160Q230 -192 227 -198T215 -205H209Q189 -205 189 -198Q189 -193 211 -103L234 -11Q234 -10 226 -10Q221 -10 206 -8T161 6T107 36T62 89T43 171Q43 231 76 284T157 370T254 422T342 441Q347 441 348 445L378 567Q409 686 409 688ZM122 150Q122 116 134 91T167 53T203 35T237 27H244L337 404Q333 404 326 403T297 395T255 379T211 350T170 304Q152 276 137 237Q122 191 122 150ZM500 282Q500 320 484 347T444 385T405 400T381 404H378L332 217L284 29Q284 27 285 27Q293 27 317 33T357 47Q400 66 431 100T475 170T494 234T500 282Z"
        />
        <path
            id="MJX-41-TEX-N-32"
            d="M109 429Q82 429 66 447T50 491Q50 562 103 614T235 666Q326 666 387 610T449 465Q449 422 429 383T381 315T301 241Q265 210 201 149L142 93L218 92Q375 92 385 97Q392 99 409 186V189H449V186Q448 183 436 95T421 3V0H50V19V31Q50 38 56 46T86 81Q115 113 136 137Q145 147 170 174T204 211T233 244T261 278T284 308T305 340T320 369T333 401T340 431T343 464Q343 527 309 573T212 619Q179 619 154 602T119 569T109 550Q109 549 114 549Q132 549 151 535T170 489Q170 464 154 447T109 429Z"
        />
        <path
            id="MJX-41-TEX-I-1D719"
            d="M409 688Q413 694 421 694H429H442Q448 688 448 686Q448 679 418 563Q411 535 404 504T392 458L388 442Q388 441 397 441T429 435T477 418Q521 397 550 357T579 260T548 151T471 65T374 11T279 -10H275L251 -105Q245 -128 238 -160Q230 -192 227 -198T215 -205H209Q189 -205 189 -198Q189 -193 211 -103L234 -11Q234 -10 226 -10Q221 -10 206 -8T161 6T107 36T62 89T43 171Q43 231 76 284T157 370T254 422T342 441Q347 441 348 445L378 567Q409 686 409 688ZM122 150Q122 116 134 91T167 53T203 35T237 27H244L337 404Q333 404 326 403T297 395T255 379T211 350T170 304Q152 276 137 237Q122 191 122 150ZM500 282Q500 320 484 347T444 385T405 400T381 404H378L332 217L284 29Q284 27 285 27Q293 27 317 33T357 47Q400 66 431 100T475 170T494 234T500 282Z"
        />
        <path
            id="MJX-42-TEX-N-32"
            d="M109 429Q82 429 66 447T50 491Q50 562 103 614T235 666Q326 666 387 610T449 465Q449 422 429 383T381 315T301 241Q265 210 201 149L142 93L218 92Q375 92 385 97Q392 99 409 186V189H449V186Q448 183 436 95T421 3V0H50V19V31Q50 38 56 46T86 81Q115 113 136 137Q145 147 170 174T204 211T233 244T261 278T284 308T305 340T320 369T333 401T340 431T343 464Q343 527 309 573T212 619Q179 619 154 602T119 569T109 550Q109 549 114 549Q132 549 151 535T170 489Q170 464 154 447T109 429Z"
        />
        <path
            id="MJX-42-TEX-I-1D719"
            d="M409 688Q413 694 421 694H429H442Q448 688 448 686Q448 679 418 563Q411 535 404 504T392 458L388 442Q388 441 397 441T429 435T477 418Q521 397 550 357T579 260T548 151T471 65T374 11T279 -10H275L251 -105Q245 -128 238 -160Q230 -192 227 -198T215 -205H209Q189 -205 189 -198Q189 -193 211 -103L234 -11Q234 -10 226 -10Q221 -10 206 -8T161 6T107 36T62 89T43 171Q43 231 76 284T157 370T254 422T342 441Q347 441 348 445L378 567Q409 686 409 688ZM122 150Q122 116 134 91T167 53T203 35T237 27H244L337 404Q333 404 326 403T297 395T255 379T211 350T170 304Q152 276 137 237Q122 191 122 150ZM500 282Q500 320 484 347T444 385T405 400T381 404H378L332 217L284 29Q284 27 285 27Q293 27 317 33T357 47Q400 66 431 100T475 170T494 234T500 282Z"
        />
        <symbol id="node_circ">
            <g stroke="#000" stroke-miterlimit="10" stroke-width=".53134">
                <path
                    d="M4.49803 2.38186c0-1.16874-.94744-2.11617-2.11617-2.11617s-2.11617.94743-2.11617 2.11617.94743 2.11617 2.11617 2.11617 2.11617-.94744 2.11617-2.11617Zm-2.11617 0"
                    fill="currentColor"
                />
            </g>
        </symbol>
        <symbol id="node_ocirc">
            <g stroke="#000" stroke-miterlimit="10" stroke-width=".53134">
                <path
                    fill="#fff"
                    d="M4.49803 2.38186c0-1.16874-.94744-2.11617-2.11617-2.11617s-2.11617.94743-2.11617 2.11617.94743 2.11617 2.11617 2.11617 2.11617-.94744 2.11617-2.11617Zm-2.11617 0"
                />
            </g>
        </symbol>
        <path
            id="MJX-71-TEX-I-1D45B"
            d="M21 287Q22 293 24 303T36 341T56 388T89 425T135 442Q171 442 195 424T225 390T231 369Q231 367 232 367L243 378Q304 442 382 442Q436 442 469 415T503 336T465 179T427 52Q427 26 444 26Q450 26 453 27Q482 32 505 65T540 145Q542 153 560 153Q580 153 580 145Q580 144 576 130Q568 101 554 73T508 17T439 -10Q392 -10 371 17T350 73Q350 92 386 193T423 345Q423 404 379 404H374Q288 404 229 303L222 291L189 157Q156 26 151 16Q138 -11 108 -11Q95 -11 87 -5T76 7T74 17Q74 30 112 180T152 343Q153 348 153 366Q153 405 129 405Q91 405 66 305Q60 285 60 284Q58 278 41 278H27Q21 284 21 287Z"
        />
        <path
            id="MJX-71-TEX-I-1D456"
            d="M184 600Q184 624 203 642T247 661Q265 661 277 649T290 619Q290 596 270 577T226 557Q211 557 198 567T184 600ZM21 287Q21 295 30 318T54 369T98 420T158 442Q197 442 223 419T250 357Q250 340 236 301T196 196T154 83Q149 61 149 51Q149 26 166 26Q175 26 185 29T208 43T235 78T260 137Q263 149 265 151T282 153Q302 153 302 143Q302 135 293 112T268 61T223 11T161 -11Q129 -11 102 10T74 74Q74 91 79 106T122 220Q160 321 166 341T173 380Q173 404 156 404H154Q124 404 99 371T61 287Q60 286 59 284T58 281T56 279T53 278T49 278T41 278H27Q21 284 21 287Z"
        />
        <path
            id="MJX-71-TEX-I-1D449"
            d="M52 648Q52 670 65 683H76Q118 680 181 680Q299 680 320 683H330Q336 677 336 674T334 656Q329 641 325 637H304Q282 635 274 635Q245 630 242 620Q242 618 271 369T301 118L374 235Q447 352 520 471T595 594Q599 601 599 609Q599 633 555 637Q537 637 537 648Q537 649 539 661Q542 675 545 679T558 683Q560 683 570 683T604 682T668 681Q737 681 755 683H762Q769 676 769 672Q769 655 760 640Q757 637 743 637Q730 636 719 635T698 630T682 623T670 615T660 608T652 599T645 592L452 282Q272 -9 266 -16Q263 -18 259 -21L241 -22H234Q216 -22 216 -15Q213 -9 177 305Q139 623 138 626Q133 637 76 637H59Q52 642 52 648Z"
        />
        <path
            id="MJX-167-TEX-I-1D440"
            d="M289 629Q289 635 232 637Q208 637 201 638T194 648Q194 649 196 659Q197 662 198 666T199 671T201 676T203 679T207 681T212 683T220 683T232 684Q238 684 262 684T307 683Q386 683 398 683T414 678Q415 674 451 396L487 117L510 154Q534 190 574 254T662 394Q837 673 839 675Q840 676 842 678T846 681L852 683H948Q965 683 988 683T1017 684Q1051 684 1051 673Q1051 668 1048 656T1045 643Q1041 637 1008 637Q968 636 957 634T939 623Q936 618 867 340T797 59Q797 55 798 54T805 50T822 48T855 46H886Q892 37 892 35Q892 19 885 5Q880 0 869 0Q864 0 828 1T736 2Q675 2 644 2T609 1Q592 1 592 11Q592 13 594 25Q598 41 602 43T625 46Q652 46 685 49Q699 52 704 61Q706 65 742 207T813 490T848 631L654 322Q458 10 453 5Q451 4 449 3Q444 0 433 0Q418 0 415 7Q413 11 374 317L335 624L267 354Q200 88 200 79Q206 46 272 46H282Q288 41 289 37T286 19Q282 3 278 1Q274 0 267 0Q265 0 255 0T221 1T157 2Q127 2 95 1T58 0Q43 0 39 2T35 11Q35 13 38 25T43 40Q45 46 65 46Q135 46 154 86Q158 92 223 354T289 629Z"
        />
        <path
            id="MJX-167-TEX-I-1D436"
            d="M50 252Q50 367 117 473T286 641T490 704Q580 704 633 653Q642 643 648 636T656 626L657 623Q660 623 684 649Q691 655 699 663T715 679T725 690L740 705H746Q760 705 760 698Q760 694 728 561Q692 422 692 421Q690 416 687 415T669 413H653Q647 419 647 422Q647 423 648 429T650 449T651 481Q651 552 619 605T510 659Q484 659 454 652T382 628T299 572T226 479Q194 422 175 346T156 222Q156 108 232 58Q280 24 350 24Q441 24 512 92T606 240Q610 253 612 255T628 257Q648 257 648 248Q648 243 647 239Q618 132 523 55T319 -22Q206 -22 128 53T50 252Z"
        />
        <path
            id="MJX-167-TEX-I-1D449"
            d="M52 648Q52 670 65 683H76Q118 680 181 680Q299 680 320 683H330Q336 677 336 674T334 656Q329 641 325 637H304Q282 635 274 635Q245 630 242 620Q242 618 271 369T301 118L374 235Q447 352 520 471T595 594Q599 601 599 609Q599 633 555 637Q537 637 537 648Q537 649 539 661Q542 675 545 679T558 683Q560 683 570 683T604 682T668 681Q737 681 755 683H762Q769 676 769 672Q769 655 760 640Q757 637 743 637Q730 636 719 635T698 630T682 623T670 615T660 608T652 599T645 592L452 282Q272 -9 266 -16Q263 -18 259 -21L241 -22H234Q216 -22 216 -15Q213 -9 177 305Q139 623 138 626Q133 637 76 637H59Q52 642 52 648Z"
        />
    </defs>
    <g style="" class="">
        <use
            xlink:href="#path_capacitor"
            fill="none"
            stroke="#000"
            style="color: #000;"
            transform="matrix(0.6,0,0,0.6,204.380446,-171.229264)"
        />
        <line
            x1="188.976"
            y1="-161.386"
            x2="204.69926800000002"
            y2="-161.386"
            fill="none"
            stroke-width="0.5"
            stroke="#000"
        />
        <line
            x1="226.772"
            y1="-161.386"
            x2="211.04872600000002"
            y2="-161.386"
            fill="none"
            stroke-width="0.5"
            stroke="#000"
        />
    </g>
    <g style="" class="">
        <use
            xlink:href="#path_capacitor"
            fill="none"
            stroke="#000"
            style="color: #000;"
            transform="matrix(0.6,0,0,0.6,204.380446,-208.26826400000002)"
        />
        <line
            x1="188.976"
            y1="-198.425"
            x2="204.69926800000002"
            y2="-198.425"
            fill="none"
            stroke-width="0.5"
            stroke="#000"
        />
        <line
            x1="226.772"
            y1="-198.425"
            x2="211.04872600000002"
            y2="-198.425"
            fill="none"
            stroke-width="0.5"
            stroke="#000"
        />
    </g>
    <g class="">
        <polyline
            points="188.976,-198.425 188.976,-236.22 245.669,-236.22"
            fill="none"
            stroke-dasharray="0.4pt 0pt"
            stroke-opacity="1"
            stroke-width="0.5333333333333333"
            stroke="#000"
        />
    </g>
    <g class="">
        <polyline
            points="245.669,-160.63 245.669,-197.669"
            fill="none"
            stroke-dasharray="0.4pt 0pt"
            stroke-opacity="1"
            stroke-width="0.5333333333333333"
            stroke="#000"
        />
    </g>
    <g class="">
        <polyline
            points="226.772,-198.425 245.669,-198.425"
            fill="none"
            stroke-dasharray="0.4pt 0pt"
            stroke-opacity="1"
            stroke-width="0.5333333333333333"
            stroke="#000"
        />
    </g>
    <g class="">
        <polyline
            points="122.4569045669291,-197.66937007874014 122.64590456692912,-197.66937007874014 122.64590456692912,-160.63037007874016"
            fill="none"
            stroke-dasharray="0.4pt 0pt"
            stroke-opacity="1"
            stroke-width="0.5333333333333333"
            stroke="#000"
        />
    </g>
    <g class="">
        <polyline
            points="122.64590456692912,-161.38637007874013 122.64590456692912,-160.62992125984252 103.93700787401573,-160.62992125984252"
            fill="none"
            stroke-dasharray="0.4pt 0pt"
            stroke-opacity="1"
            stroke-width="0.5333333333333333"
            stroke="#000"
        />
    </g>
    <g class="">
        <use
            xlink:href="#node_fd-op-amp"
            fill="none"
            stroke="#000"
            style="color: #000;"
            transform="matrix(1,0,0,1,264.30123000000003,-160.0274)"
        />
    </g>
    <g style="" class="">
        <use
            xlink:href="#path_switch"
            fill="none"
            stroke="#000"
            style="color: #000;"
            transform="matrix(1,0,0,1,131.7521045669291,-96.68265007874015)"
        />
        <line
            x1="122.64590456692912"
            y1="-85.03937007874015"
            x2="132.2834645669291"
            y2="-85.03937007874015"
            fill="none"
            stroke-width="0.5"
            stroke="#000"
        />
        <line
            x1="160.4409045669291"
            y1="-85.03937007874015"
            x2="150.80337456692908"
            y2="-85.03937007874015"
            fill="none"
            stroke-width="0.5"
            stroke="#000"
        />
        <g
            class="pointerNone"
            transform="matrix(1,0,0,1,134.99049364297127,-103.97762370746761)"
            fill="#000"
        >
            <g
                transform="matrix(0.013459606567161603,0,0,0.013461172961254835,0,0)"
            >
                <g
                    stroke="currentColor"
                    fill="inherit"
                    stroke-width="0"
                    transform="scale(1,-1)"
                >
                    <g>
                        <g transform="translate(629,-150) scale(0.707)">
                            <use xlink:href="#MJX-31-TEX-N-31" />
                        </g>
                        <use xlink:href="#MJX-31-TEX-I-1D719" />
                    </g>
                </g>
            </g>
        </g>
    </g>
    <g style="" class="">
        <use
            xlink:href="#path_capacitor"
            fill="none"
            stroke="#000"
            style="color: #000;"
            transform="matrix(0.6,0,0,-0.6,204.380446,-75.95173600000001)"
        />
        <line
            x1="188.976"
            y1="-85.795"
            x2="204.69926800000002"
            y2="-85.79500000000002"
            fill="none"
            stroke-width="0.5"
            stroke="#000"
        />
        <line
            x1="226.772"
            y1="-85.795"
            x2="211.04872600000002"
            y2="-85.79500000000002"
            fill="none"
            stroke-width="0.5"
            stroke="#000"
        />
    </g>
    <g style="" class="">
        <use
            xlink:href="#path_capacitor"
            fill="none"
            stroke="#000"
            style="color: #000;"
            transform="matrix(0.6,0,0,-0.6,204.380446,-38.912736)"
        />
        <line
            x1="188.976"
            y1="-48.756"
            x2="204.69926800000002"
            y2="-48.756"
            fill="none"
            stroke-width="0.5"
            stroke="#000"
        />
        <line
            x1="226.772"
            y1="-48.756"
            x2="211.04872600000002"
            y2="-48.756"
            fill="none"
            stroke-width="0.5"
            stroke="#000"
        />
    </g>
    <g class="">
        <polyline
            points="188.976,0 188.976,-48.756 245.48,-48.756 245.669,-48.756"
            fill="none"
            stroke-dasharray="0.4pt 0pt"
            stroke-opacity="1"
            stroke-width="0.5333333333333333"
            stroke="#000"
        />
    </g>
    <g class="">
        <polyline
            points="245.858,-48.756 245.858,-85.795"
            fill="none"
            stroke-dasharray="0.4pt 0pt"
            stroke-opacity="1"
            stroke-width="0.5333333333333333"
            stroke="#000"
        />
    </g>
    <g class="">
        <polyline
            points="226.772,-48.756 245.669,-48.756"
            fill="none"
            stroke-dasharray="0.4pt 0pt"
            stroke-opacity="1"
            stroke-width="0.5333333333333333"
            stroke="#000"
        />
    </g>
    <g class="">
        <polyline
            points="122.4569045669291,-85.03937007874015 122.64590456692912,-85.03937007874015 122.64590456692912,-48.00037007874015"
            fill="none"
            stroke-dasharray="0.4pt 0pt"
            stroke-opacity="1"
            stroke-width="0.5333333333333333"
            stroke="#000"
        />
    </g>
    <g class="">
        <polyline
            points="122.4569045669291,-85.79537007874015 122.4569045669291,-85.03937007874015 103.5589045669291,-85.03937007874015"
            fill="none"
            stroke-dasharray="0.4pt 0pt"
            stroke-opacity="1"
            stroke-width="0.5333333333333333"
            stroke="#000"
        />
    </g>
    <g class="">
        <polyline
            points="188.976,-1.511 188.976,0 283.465,0"
            fill="none"
            stroke-dasharray="0.4pt 0pt"
            stroke-opacity="1"
            stroke-width="0.5333333333333333"
            stroke="#000"
        />
    </g>
    <g class="">
        <polyline
            points="321.26,-48.756 341.026,-48.756 341.026,-47.244 341.026,-103.937"
            fill="none"
            stroke-dasharray="0.4pt 0pt"
            stroke-opacity="1"
            stroke-width="0.5333333333333333"
            stroke="#000"
        />
    </g>
    <g class="">
        <polyline
            points="245.858,-48.756 283.465,-48.756"
            fill="none"
            stroke-dasharray="0.4pt 0pt"
            stroke-opacity="1"
            stroke-width="0.5333333333333333"
            stroke="#000"
        />
    </g>
    <g class="">
        <polyline
            points="245.669,-198.425 283.465,-198.425"
            fill="none"
            stroke-dasharray="0.4pt 0pt"
            stroke-opacity="1"
            stroke-width="0.5333333333333333"
            stroke="#000"
        />
    </g>
    <g class="">
        <polyline
            points="321.26,-198.425 341.026,-198.425 341.026,-150.425 341.026,-140.976"
            fill="none"
            stroke-dasharray="0.4pt 0pt"
            stroke-opacity="1"
            stroke-width="0.5333333333333333"
            stroke="#000"
        />
    </g>
    <g class="">
        <polyline
            points="226.772,-161.386 245.669,-161.386 245.669,-160.63 245.669,-140.976 264.567,-140.976 264.567,-140.22"
            fill="none"
            stroke-dasharray="0.4pt 0pt"
            stroke-opacity="1"
            stroke-width="0.5333333333333333"
            stroke="#000"
        />
    </g>
    <g class="">
        <polyline
            points="226.772,-85.795 245.669,-85.795 245.669,-85.039 245.669,-103.937 264.567,-103.937"
            fill="none"
            stroke-dasharray="0.4pt 0pt"
            stroke-opacity="1"
            stroke-width="0.5333333333333333"
            stroke="#000"
        />
    </g>
    <g style="" class="">
        <use
            xlink:href="#path_capacitor"
            fill="none"
            stroke="#000"
            style="color: #000;"
            transform="matrix(3.6739403974420595e-17,-0.6,0.6,3.6739403974420595e-17,377.558736,-81.54644599999999)"
        />
        <line
            x1="387.402"
            y1="-66.142"
            x2="387.402"
            y2="-81.86526799999999"
            fill="none"
            stroke-width="0.5"
            stroke="#000"
        />
        <line
            x1="387.402"
            y1="-103.938"
            x2="387.402"
            y2="-88.21472599999998"
            fill="none"
            stroke-width="0.5"
            stroke="#000"
        />
    </g>
    <g style="" class="">
        <use
            xlink:href="#path_capacitor"
            fill="none"
            stroke="#000"
            style="color: #000;"
            transform="matrix(3.6739403974420595e-17,-0.6,0.6,3.6739403974420595e-17,405.904736,-81.54644599999999)"
        />
        <line
            x1="415.748"
            y1="-66.142"
            x2="415.748"
            y2="-81.86526799999999"
            fill="none"
            stroke-width="0.5"
            stroke="#000"
        />
        <line
            x1="415.748"
            y1="-103.938"
            x2="415.748"
            y2="-88.21472599999998"
            fill="none"
            stroke-width="0.5"
            stroke="#000"
        />
    </g>
    <g class="">
        <polyline
            points="378.821,-103.937 387.402,-103.937"
            fill="none"
            stroke-dasharray="0.4pt 0pt"
            stroke-opacity="1"
            stroke-width="0.5333333333333333"
            stroke="#000"
        />
    </g>
    <g class="">
        <polyline
            points="415.748,-141.732 415.748,-103.937 415.748,-141.732 415.748,-140.977 378.821,-140.977"
            fill="none"
            stroke-dasharray="0.4pt 0pt"
            stroke-opacity="1"
            stroke-width="0.5333333333333333"
            stroke="#000"
        />
    </g>
    <g class="">
        <use
            xlink:href="#node_tlground"
            fill="none"
            stroke="#000"
            style="color: #000;"
            transform="matrix(1,0,0,1,378.97166,-66.63532)"
        />
    </g>
    <g class="">
        <use
            xlink:href="#node_tlground"
            fill="none"
            stroke="#000"
            style="color: #000;"
            transform="matrix(1,0,0,1,407.31766,-66.63532)"
        />
    </g>
    <g class="">
        <polyline
            points="245.669,-236.22 283.276,-236.22"
            fill="none"
            stroke-dasharray="0.4pt 0pt"
            stroke-opacity="1"
            stroke-width="0.5333333333333333"
            stroke="#000"
        />
    </g>
    <g class="">
        <polyline
            points="341.026,-226.772 341.026,-198.425"
            fill="none"
            stroke-dasharray="0.4pt 0pt"
            stroke-opacity="1"
            stroke-width="0.5333333333333333"
            stroke="#000"
        />
    </g>
    <g class="">
        <polyline
            points="340.157,-236.22 321.26,-236.22"
            fill="none"
            stroke-dasharray="0.4pt 0pt"
            stroke-opacity="1"
            stroke-width="0.5333333333333333"
            stroke="#000"
        />
    </g>
    <g style="" class="">
        <use
            xlink:href="#path_switch"
            fill="none"
            stroke="#000"
            style="color: #000;"
            transform="matrix(1,0,0,1,131.7521045669291,-60.399280000000005)"
        />
        <line
            x1="122.64590456692912"
            y1="-48.756"
            x2="132.2834645669291"
            y2="-48.756"
            fill="none"
            stroke-width="0.5"
            stroke="#000"
        />
        <line
            x1="160.4409045669291"
            y1="-48.756"
            x2="150.80337456692908"
            y2="-48.756"
            fill="none"
            stroke-width="0.5"
            stroke="#000"
        />
        <g
            class="pointerNone"
            transform="matrix(1,0,0,1,134.99049364297127,-67.69425362872747)"
            fill="#000"
        >
            <g
                transform="matrix(0.013459606567161603,0,0,0.013461172961254835,0,0)"
            >
                <g
                    stroke="currentColor"
                    fill="inherit"
                    stroke-width="0"
                    transform="scale(1,-1)"
                >
                    <g>
                        <g transform="translate(629,-150) scale(0.707)">
                            <use xlink:href="#MJX-32-TEX-N-31" />
                        </g>
                        <use xlink:href="#MJX-32-TEX-I-1D719" />
                    </g>
                </g>
            </g>
        </g>
    </g>
    <g style="" class="">
        <use
            xlink:href="#path_switch"
            fill="none"
            stroke="#000"
            style="color: #000;"
            transform="matrix(1,0,0,1,131.7521045669291,-172.27365007874016)"
        />
        <line
            x1="122.64590456692912"
            y1="-160.63037007874016"
            x2="132.2834645669291"
            y2="-160.63037007874016"
            fill="none"
            stroke-width="0.5"
            stroke="#000"
        />
        <line
            x1="160.4409045669291"
            y1="-160.63037007874016"
            x2="150.80337456692908"
            y2="-160.63037007874016"
            fill="none"
            stroke-width="0.5"
            stroke="#000"
        />
        <g
            class="pointerNone"
            transform="matrix(1,0,0,1,134.99049364297127,-179.56862370746762)"
            fill="#000"
        >
            <g
                transform="matrix(0.013459606567161603,0,0,0.013461172961254835,0,0)"
            >
                <g
                    stroke="currentColor"
                    fill="inherit"
                    stroke-width="0"
                    transform="scale(1,-1)"
                >
                    <g>
                        <g transform="translate(629,-150) scale(0.707)">
                            <use xlink:href="#MJX-33-TEX-N-31" />
                        </g>
                        <use xlink:href="#MJX-33-TEX-I-1D719" />
                    </g>
                </g>
            </g>
        </g>
    </g>
    <g style="" class="">
        <use
            xlink:href="#path_switch"
            fill="none"
            stroke="#000"
            style="color: #000;"
            transform="matrix(1,0,0,1,131.7521045669291,-210.0684768503937)"
        />
        <line
            x1="122.64590456692912"
            y1="-198.4251968503937"
            x2="132.2834645669291"
            y2="-198.4251968503937"
            fill="none"
            stroke-width="0.5"
            stroke="#000"
        />
        <line
            x1="160.4409045669291"
            y1="-198.4251968503937"
            x2="150.80337456692908"
            y2="-198.4251968503937"
            fill="none"
            stroke-width="0.5"
            stroke="#000"
        />
        <g
            class="pointerNone"
            transform="matrix(1,0,0,1,134.99049364297127,-217.36345047912116)"
            fill="#000"
        >
            <g
                transform="matrix(0.013459606567161603,0,0,0.013461172961254835,0,0)"
            >
                <g
                    stroke="currentColor"
                    fill="inherit"
                    stroke-width="0"
                    transform="scale(1,-1)"
                >
                    <g>
                        <g transform="translate(629,-150) scale(0.707)">
                            <use xlink:href="#MJX-34-TEX-N-31" />
                        </g>
                        <use xlink:href="#MJX-34-TEX-I-1D719" />
                    </g>
                </g>
            </g>
        </g>
    </g>
    <g style="" class="">
        <use
            xlink:href="#path_switch"
            fill="none"
            stroke="#000"
            style="color: #000;"
            transform="matrix(1,0,0,1,292.3822,-210.06828000000002)"
        />
        <line
            x1="283.276"
            y1="-198.425"
            x2="292.91356"
            y2="-198.425"
            fill="none"
            stroke-width="0.5"
            stroke="#000"
        />
        <line
            x1="321.071"
            y1="-198.425"
            x2="311.43347"
            y2="-198.425"
            fill="none"
            stroke-width="0.5"
            stroke="#000"
        />
        <g
            class="pointerNone"
            transform="matrix(1,0,0,1,302.1735,-214.60371307086615)"
            fill="#000"
        >
            <g
                transform="matrix(0.013459606567161603,0,0,0.013461172961254835,0,0)"
            >
                <g
                    stroke="currentColor"
                    fill="inherit"
                    stroke-width="0"
                    transform="scale(1,-1)"
                >
                    <g>
                        <g transform="translate(629,-150) scale(0.707)">
                            <use xlink:href="#MJX-35-TEX-N-31" />
                        </g>
                        <use xlink:href="#MJX-35-TEX-I-1D719" />
                    </g>
                </g>
            </g>
        </g>
    </g>
    <g style="" class="">
        <use
            xlink:href="#path_switch"
            fill="none"
            stroke="#000"
            style="color: #000;"
            transform="matrix(1,0,0,1,292.5712,-60.399280000000005)"
        />
        <line
            x1="283.465"
            y1="-48.756"
            x2="293.10256"
            y2="-48.756"
            fill="none"
            stroke-width="0.5"
            stroke="#000"
        />
        <line
            x1="321.26"
            y1="-48.756"
            x2="311.62246999999996"
            y2="-48.756"
            fill="none"
            stroke-width="0.5"
            stroke="#000"
        />
        <g
            class="pointerNone"
            transform="matrix(1,0,0,1,302.36249999999995,-64.93471307086614)"
            fill="#000"
        >
            <g
                transform="matrix(0.013459606567161603,0,0,0.013461172961254835,0,0)"
            >
                <g
                    stroke="currentColor"
                    fill="inherit"
                    stroke-width="0"
                    transform="scale(1,-1)"
                >
                    <g>
                        <g transform="translate(629,-150) scale(0.707)">
                            <use xlink:href="#MJX-36-TEX-N-31" />
                        </g>
                        <use xlink:href="#MJX-36-TEX-I-1D719" />
                    </g>
                </g>
            </g>
        </g>
    </g>
    <g style="" class="">
        <use
            xlink:href="#path_switch"
            fill="none"
            stroke="#000"
            style="color: #000;"
            transform="matrix(1,0,0,1,292.5712,-247.86328)"
        />
        <line
            x1="283.465"
            y1="-236.22"
            x2="293.10256"
            y2="-236.22"
            fill="none"
            stroke-width="0.5"
            stroke="#000"
        />
        <line
            x1="321.26"
            y1="-236.22"
            x2="311.62246999999996"
            y2="-236.22"
            fill="none"
            stroke-width="0.5"
            stroke="#000"
        />
        <g
            class="pointerNone"
            transform="matrix(1,0,0,1,302.36249999999995,-252.39871307086614)"
            fill="#000"
        >
            <g
                transform="matrix(0.013459606567161603,0,0,0.013461172961254835,0,0)"
            >
                <g
                    stroke="currentColor"
                    fill="inherit"
                    stroke-width="0"
                    transform="scale(1,-1)"
                >
                    <g>
                        <g transform="translate(629,-150) scale(0.707)">
                            <use xlink:href="#MJX-37-TEX-N-32" />
                        </g>
                        <use xlink:href="#MJX-37-TEX-I-1D719" />
                    </g>
                </g>
            </g>
        </g>
    </g>
    <g class="">
        <polyline
            points="340.157,-236.22 341.026,-236.22 341.026,-226.772"
            fill="none"
            stroke-dasharray="0.4pt 0pt"
            stroke-opacity="1"
            stroke-width="0.5333333333333333"
            stroke="#000"
        />
    </g>
    <g style="" class="">
        <use
            xlink:href="#path_switch"
            fill="none"
            stroke="#000"
            style="color: #000;"
            transform="matrix(1,0,0,1,292.3822,-11.64328)"
        />
        <line
            x1="283.276"
            y1="0"
            x2="292.91356"
            y2="0"
            fill="none"
            stroke-width="0.5"
            stroke="#000"
        />
        <line
            x1="321.071"
            y1="0"
            x2="311.43347"
            y2="0"
            fill="none"
            stroke-width="0.5"
            stroke="#000"
        />
        <g
            class="pointerNone"
            transform="matrix(1,0,0,1,302.1735,-16.17871307086614)"
            fill="#000"
        >
            <g
                transform="matrix(0.013459606567161603,0,0,0.013461172961254835,0,0)"
            >
                <g
                    stroke="currentColor"
                    fill="inherit"
                    stroke-width="0"
                    transform="scale(1,-1)"
                >
                    <g>
                        <g transform="translate(629,-150) scale(0.707)">
                            <use xlink:href="#MJX-38-TEX-N-32" />
                        </g>
                        <use xlink:href="#MJX-38-TEX-I-1D719" />
                    </g>
                </g>
            </g>
        </g>
    </g>
    <g class="">
        <polyline
            points="341.026,-39.308 341.026,-10.961"
            fill="none"
            stroke-dasharray="0.4pt 0pt"
            stroke-opacity="1"
            stroke-width="0.5333333333333333"
            stroke="#000"
        />
    </g>
    <g class="">
        <polyline
            points="340.157,-48.756 341.026,-48.756 341.026,-39.308"
            fill="none"
            stroke-dasharray="0.4pt 0pt"
            stroke-opacity="1"
            stroke-width="0.5333333333333333"
            stroke="#000"
        />
    </g>
    <g class="">
        <polyline
            points="321.071,0 341.026,0 341.026,-10.961"
            fill="none"
            stroke-dasharray="0.4pt 0pt"
            stroke-opacity="1"
            stroke-width="0.5333333333333333"
            stroke="#000"
        />
    </g>
    <g style="" class="">
        <use
            xlink:href="#path_switch"
            fill="none"
            stroke="#000"
            style="color: #000;"
            transform="matrix(1,0,0,1,350.1322,-152.62028)"
        />
        <line
            x1="341.026"
            y1="-140.977"
            x2="350.66356"
            y2="-140.977"
            fill="none"
            stroke-width="0.5"
            stroke="#000"
        />
        <line
            x1="378.821"
            y1="-140.977"
            x2="369.18347"
            y2="-140.977"
            fill="none"
            stroke-width="0.5"
            stroke="#000"
        />
        <g
            class="pointerNone"
            transform="matrix(1,0,0,1,353.2659137830734,-159.91525362872747)"
            fill="#000"
        >
            <g
                transform="matrix(0.013459606567161603,0,0,0.013461172961254835,0,0)"
            >
                <g
                    stroke="currentColor"
                    fill="inherit"
                    stroke-width="0"
                    transform="scale(1,-1)"
                >
                    <g>
                        <g transform="translate(629,-150) scale(0.707)">
                            <use xlink:href="#MJX-39-TEX-N-32" />
                        </g>
                        <use xlink:href="#MJX-39-TEX-I-1D719" />
                    </g>
                </g>
            </g>
        </g>
    </g>
    <g style="" class="">
        <use
            xlink:href="#path_switch"
            fill="none"
            stroke="#000"
            style="color: #000;"
            transform="matrix(1,0,0,1,350.1322,-115.58028)"
        />
        <line
            x1="341.026"
            y1="-103.937"
            x2="350.66356"
            y2="-103.937"
            fill="none"
            stroke-width="0.5"
            stroke="#000"
        />
        <line
            x1="378.821"
            y1="-103.937"
            x2="369.18347"
            y2="-103.937"
            fill="none"
            stroke-width="0.5"
            stroke="#000"
        />
        <g
            class="pointerNone"
            transform="matrix(1,0,0,1,359.9235,-120.11571307086614)"
            fill="#000"
        >
            <g
                transform="matrix(0.013459606567161603,0,0,0.013461172961254835,0,0)"
            >
                <g
                    stroke="currentColor"
                    fill="inherit"
                    stroke-width="0"
                    transform="scale(1,-1)"
                >
                    <g>
                        <g transform="translate(629,-150) scale(0.707)">
                            <use xlink:href="#MJX-40-TEX-N-32" />
                        </g>
                        <use xlink:href="#MJX-40-TEX-I-1D719" />
                    </g>
                </g>
            </g>
        </g>
    </g>
    <g style="" class="">
        <use
            xlink:href="#path_switch"
            fill="none"
            stroke="#000"
            style="color: #000;"
            transform="matrix(6.123233995736766e-17,-1,1,6.123233995736766e-17,177.33272,-132.69719999999998)"
        />
        <line
            x1="188.976"
            y1="-123.59099999999998"
            x2="188.976"
            y2="-133.22856"
            fill="none"
            stroke-width="0.5"
            stroke="#000"
        />
        <line
            x1="188.976"
            y1="-161.386"
            x2="188.976"
            y2="-151.74846999999997"
            fill="none"
            stroke-width="0.5"
            stroke="#000"
        />
        <g
            class="pointerNone"
            transform="matrix(1,0,0,1,160.05853682899806,-139.1972435722351)"
            fill="#000"
        >
            <g
                transform="matrix(0.013459606567161603,0,0,0.013461172961254835,0,0)"
            >
                <g
                    stroke="currentColor"
                    fill="inherit"
                    stroke-width="0"
                    transform="scale(1,-1)"
                >
                    <g>
                        <g transform="translate(629,-150) scale(0.707)">
                            <use xlink:href="#MJX-41-TEX-N-32" />
                        </g>
                        <use xlink:href="#MJX-41-TEX-I-1D719" />
                    </g>
                </g>
            </g>
        </g>
    </g>
    <g style="" class="">
        <use
            xlink:href="#path_switch"
            fill="none"
            stroke="#000"
            style="color: #000;"
            transform="matrix(6.123233995736766e-17,-1,1,6.123233995736766e-17,177.3330979527559,-93.95682897637795)"
        />
        <line
            x1="188.9763779527559"
            y1="-84.85062897637792"
            x2="188.9763779527559"
            y2="-94.48818897637794"
            fill="none"
            stroke-width="0.5"
            stroke="#000"
        />
        <line
            x1="188.9763779527559"
            y1="-122.64562897637796"
            x2="188.9763779527559"
            y2="-113.00809897637795"
            fill="none"
            stroke-width="0.5"
            stroke="#000"
        />
        <g
            class="pointerNone"
            transform="matrix(1,0,0,1,160.05891478175397,-100.45687254861305)"
            fill="#000"
        >
            <g
                transform="matrix(0.013459606567161603,0,0,0.013461172961254835,0,0)"
            >
                <g
                    stroke="currentColor"
                    fill="inherit"
                    stroke-width="0"
                    transform="scale(1,-1)"
                >
                    <g>
                        <g transform="translate(629,-150) scale(0.707)">
                            <use xlink:href="#MJX-42-TEX-N-32" />
                        </g>
                        <use xlink:href="#MJX-42-TEX-I-1D719" />
                    </g>
                </g>
            </g>
        </g>
    </g>
    <g class="">
        <polyline
            points="160.62992125984252,-198.4251968503937 188.9763946456693,-198.4251968503937 188.9763946456693,-199.18102362204723"
            fill="none"
            stroke-dasharray="0.4pt 0pt"
            stroke-opacity="1"
            stroke-width="0.5333333333333333"
            stroke="#000"
        />
    </g>
    <g class="">
        <polyline
            points="160.4409045669291,-160.63037007874016 188.976,-160.63037007874016 188.976,-161.386"
            fill="none"
            stroke-dasharray="0.4pt 0pt"
            stroke-opacity="1"
            stroke-width="0.5333333333333333"
            stroke="#000"
        />
    </g>
    <g class="">
        <polyline
            points="160.62992125984252,-85.03937007874015 188.976,-85.03937007874015 188.976,-85.795"
            fill="none"
            stroke-dasharray="0.4pt 0pt"
            stroke-opacity="1"
            stroke-width="0.5333333333333333"
            stroke="#000"
        />
    </g>
    <g class="">
        <polyline
            points="160.4409045669291,-48.756 188.976,-48.756 188.976,-49.51162992125985"
            fill="none"
            stroke-dasharray="0.4pt 0pt"
            stroke-opacity="1"
            stroke-width="0.5333333333333333"
            stroke="#000"
        />
    </g>
    <g class="">
        <use
            xlink:href="#node_circ"
            fill="none"
            stroke="#000"
            style="color: #000;"
            transform="matrix(1,0,0,1,186.59414,-163.76785999999998)"
        />
    </g>
    <g class="">
        <use
            xlink:href="#node_circ"
            fill="none"
            stroke="#000"
            style="color: #000;"
            transform="matrix(1,0,0,1,186.59451795275592,-87.23248897637792)"
        />
    </g>
    <g class="">
        <polyline
            points="188.97637795275588,-122.83464566929133 207.87401574803147,-122.83464566929133"
            fill="none"
            stroke-dasharray="0.4pt 0pt"
            stroke-opacity="1"
            stroke-width="0.5333333333333333"
            stroke="#000"
        />
    </g>
    <g class="">
        <use
            xlink:href="#node_ocirc"
            fill="none"
            stroke="#000"
            style="color: #000;"
            transform="matrix(1,0,0,1,205.49215574803148,-125.21650566929134)"
            class=""
        />
    </g>
    <g class="">
        <use
            xlink:href="#node_ocirc"
            fill="none"
            stroke="#000"
            style="color: #000;"
            transform="matrix(1,0,0,1,101.55514787401573,-163.0117812598425)"
        />
    </g>
    <g class="">
        <use
            xlink:href="#node_ocirc"
            fill="none"
            stroke="#000"
            style="color: #000;"
            transform="matrix(1,0,0,1,101.55514787401573,-87.42123007874015)"
        />
    </g>
    <g class="">
        <g transform="matrix(1,0,0,1,0,0)" style="pointer-events: none;">
            <g
                fill="#000"
                transform="matrix(1,0,0,1,93.03937007874012,-128.4927658079599)"
            >
                <g
                    transform="matrix(1,0,0,1,-7.532182521205732,9.19221405002794)"
                >
                    <g
                        transform="matrix(0.013462751339894365,0,0,0.013458896619097443,0,0)"
                    >
                        <g
                            stroke="currentColor"
                            fill="inherit"
                            stroke-width="0"
                            transform="scale(1,-1)"
                        >
                            <g>
                                <g
                                    transform="translate(616,-150) scale(0.707)"
                                    data-mjx-texclass="ORD"
                                >
                                    <g transform="translate(345,0)">
                                        <use xlink:href="#MJX-71-TEX-I-1D45B" />
                                    </g>
                                    <use xlink:href="#MJX-71-TEX-I-1D456" />
                                </g>
                                <use xlink:href="#MJX-71-TEX-I-1D449" />
                            </g>
                        </g>
                    </g>
                </g>
            </g>
            <g
                fill="#000"
                transform="matrix(1,0,0,1,93.03937007874012,-128.4927658079599)"
            />
        </g>
    </g>
    <g class="">
        <g transform="matrix(1,0,0,1,0,0)" style="pointer-events: none;">
            <g
                fill="#000"
                transform="matrix(1,0,0,1,215.87383464566923,-126.83281258115808)"
            >
                <g
                    transform="matrix(1,0,0,1,-2.9974764564565426,6.4345498388769515)"
                >
                    <g
                        transform="matrix(0.009422372705326568,0,0,0.009422971746091788,0,0)"
                    >
                        <g
                            stroke="currentColor"
                            fill="inherit"
                            stroke-width="0"
                            transform="scale(1,-1)"
                        >
                            <g>
                                <g
                                    transform="translate(616,-150) scale(0.707)"
                                    data-mjx-texclass="ORD"
                                >
                                    <g transform="translate(760,0)">
                                        <use
                                            xlink:href="#MJX-167-TEX-I-1D440"
                                        />
                                    </g>
                                    <use xlink:href="#MJX-167-TEX-I-1D436" />
                                </g>
                                <use xlink:href="#MJX-167-TEX-I-1D449" />
                            </g>
                        </g>
                    </g>
                </g>
            </g>
            <g
                fill="#000"
                transform="matrix(1,0,0,1,215.87383464566923,-126.83281258115808)"
            />
        </g>
    </g>
    <g class="">
        <use
            xlink:href="#node_circ"
            fill="none"
            stroke="#000"
            style="color: #000;"
            transform="matrix(1,0,0,1,186.5945179527559,-200.80705685039368)"
        />
    </g>
    <g class="">
        <use
            xlink:href="#node_circ"
            fill="none"
            stroke="#000"
            style="color: #000;"
            transform="matrix(1,0,0,1,186.59414,-51.13786)"
            class=""
        />
    </g>
</svg>
